<svg width="155" height="35" viewBox="0 0 155 35" fill="none" xmlns="http://www.w3.org/2000/svg">
<path d="M20.4842 29.72H11.0442L9.64422 34H0.324219L10.6842 5.68H20.9242L31.2442 34H21.8842L20.4842 29.72ZM18.3242 23.04L15.7642 15.16L13.2042 23.04H18.3242ZM57.3417 11.44V34H48.4617V30.56C47.7684 31.6267 46.835 32.4933 45.6617 33.16C44.515 33.8267 43.1417 34.16 41.5417 34.16C38.955 34.16 36.9284 33.2933 35.4617 31.56C34.0217 29.8267 33.3017 27.48 33.3017 24.52V11.44H42.1417V23.4C42.1417 24.4667 42.4217 25.32 42.9817 25.96C43.5684 26.5733 44.3417 26.88 45.3017 26.88C46.2884 26.88 47.0617 26.5733 47.6217 25.96C48.1817 25.32 48.4617 24.4667 48.4617 23.4V11.44H57.3417ZM75.5923 26.44V34H72.2323C66.0457 34 62.9523 30.92 62.9523 24.76V18.84H60.1523V11.44H62.9523V6H71.8323V11.44H75.5123V18.84H71.8323V24.92C71.8323 25.4533 71.9523 25.84 72.1923 26.08C72.459 26.32 72.8857 26.44 73.4723 26.44H75.5923ZM83.6542 9.64C82.1076 9.64 80.8676 9.22667 79.9342 8.4C79.0009 7.57333 78.5342 6.53333 78.5342 5.28C78.5342 4 79.0009 2.94667 79.9342 2.12C80.8676 1.26666 82.1076 0.839998 83.6542 0.839998C85.1742 0.839998 86.4009 1.26666 87.3342 2.12C88.2676 2.94667 88.7342 4 88.7342 5.28C88.7342 6.53333 88.2676 7.57333 87.3342 8.4C86.4009 9.22667 85.1742 9.64 83.6542 9.64ZM88.0542 11.44V34H79.1742V11.44H88.0542ZM102.305 34.28C100.172 34.28 98.2782 33.9333 96.6248 33.24C94.9982 32.5467 93.7048 31.5867 92.7448 30.36C91.7848 29.1333 91.2382 27.7467 91.1048 26.2H99.6248C99.7315 26.8667 100.012 27.36 100.465 27.68C100.945 28 101.545 28.16 102.265 28.16C102.718 28.16 103.078 28.0667 103.345 27.88C103.612 27.6667 103.745 27.4133 103.745 27.12C103.745 26.6133 103.465 26.2533 102.905 26.04C102.345 25.8267 101.398 25.5867 100.065 25.32C98.4382 25 97.0915 24.6533 96.0248 24.28C94.9848 23.9067 94.0648 23.2667 93.2648 22.36C92.4915 21.4533 92.1048 20.2 92.1048 18.6C92.1048 17.2133 92.4648 15.96 93.1848 14.84C93.9315 13.6933 95.0248 12.8 96.4648 12.16C97.9048 11.4933 99.6515 11.16 101.705 11.16C104.745 11.16 107.118 11.9067 108.825 13.4C110.558 14.8933 111.598 16.84 111.945 19.24H104.065C103.932 18.6267 103.652 18.16 103.225 17.84C102.798 17.4933 102.225 17.32 101.505 17.32C101.052 17.32 100.705 17.4133 100.465 17.6C100.225 17.76 100.105 18.0133 100.105 18.36C100.105 18.8133 100.385 19.16 100.945 19.4C101.505 19.6133 102.398 19.84 103.625 20.08C105.252 20.4 106.625 20.76 107.745 21.16C108.865 21.56 109.838 22.2533 110.665 23.24C111.492 24.2 111.905 25.5333 111.905 27.24C111.905 28.5733 111.518 29.7733 110.745 30.84C109.972 31.9067 108.852 32.7467 107.385 33.36C105.945 33.9733 104.252 34.28 102.305 34.28ZM145.749 11.28C148.629 11.28 150.856 12.1467 152.429 13.88C154.029 15.6133 154.829 17.96 154.829 20.92V34H145.989V22.04C145.989 21.08 145.696 20.3333 145.109 19.8C144.549 19.24 143.789 18.96 142.829 18.96C141.842 18.96 141.069 19.24 140.509 19.8C139.949 20.3333 139.669 21.08 139.669 22.04V34H130.829V22.04C130.829 21.08 130.536 20.3333 129.949 19.8C129.389 19.24 128.629 18.96 127.669 18.96C126.682 18.96 125.909 19.24 125.349 19.8C124.789 20.3333 124.509 21.08 124.509 22.04V34H115.629V11.44H124.509V14.48C125.149 13.52 126.016 12.7467 127.109 12.16C128.229 11.5733 129.536 11.28 131.029 11.28C132.656 11.28 134.096 11.64 135.349 12.36C136.602 13.0533 137.602 14.04 138.349 15.32C139.176 14.1467 140.229 13.1867 141.509 12.44C142.789 11.6667 144.202 11.28 145.749 11.28Z" fill="white"/>
</svg>
