<svg width="27" height="30" viewBox="0 0 27 30" fill="none" xmlns="http://www.w3.org/2000/svg">
<path d="M8.29634 23.3125V24.8958C8.29634 27.5192 10.423 28.8542 13.0463 28.8542C15.6697 28.8542 17.7963 27.5192 17.7963 24.8958V23.3125M3.54632 9.06251C3.54632 3.81581 7.79962 1.14584 13.0463 1.14584C18.293 1.14584 22.5463 3.81581 22.5463 9.06251C22.5463 12.1328 23.6627 15.5753 24.813 18.3075C25.7681 20.576 24.1648 23.3125 21.7034 23.3125H4.38926C1.92783 23.3125 0.324547 20.576 1.27967 18.3075C2.42997 15.5753 3.54632 12.1328 3.54632 9.06251Z" stroke="black" stroke-width="2" stroke-linecap="round" stroke-linejoin="round"/>
<circle cx="19.5" cy="6.64584" r="5.5" fill="#FB2C2C"/>
</svg>
