<svg width="26" height="27" viewBox="0 0 26 27" fill="none" xmlns="http://www.w3.org/2000/svg">
<path d="M18.1417 1.15771H9.9131C8.09499 1.15842 6.35158 1.88116 5.06623 3.16701C3.78088 4.45286 3.05882 6.19655 3.05882 8.01467V18.9853C3.05882 22.772 6.1277 25.8422 9.91444 25.8422H18.143C21.9298 25.8422 25 22.7733 25 18.9853V8.016C25 4.22927 21.9311 1.15905 18.143 1.15905M1 8.7005H5.11364M1 18.2994H5.11364" stroke="black" stroke-width="1.5" stroke-linecap="round" stroke-linejoin="round"/>
<path d="M19.231 19.8276C19.231 17.622 16.7719 15.83 14.5677 15.83C12.3621 15.83 9.9043 17.622 9.9043 19.8262M14.5677 12.6531C14.9791 12.6531 15.3865 12.572 15.7666 12.4146C16.1467 12.2571 16.4921 12.0264 16.783 11.7355C17.0739 11.4445 17.3047 11.0992 17.4621 10.7191C17.6196 10.339 17.7006 9.93156 17.7006 9.52014C17.7006 9.10872 17.6196 8.70132 17.4621 8.32122C17.3047 7.94111 17.0739 7.59574 16.783 7.30482C16.4921 7.0139 16.1467 6.78313 15.7666 6.62569C15.3865 6.46824 14.9791 6.38721 14.5677 6.38721C13.7368 6.38721 12.9399 6.71728 12.3523 7.30482C11.7648 7.89236 11.4347 8.68923 11.4347 9.52014C11.4347 10.351 11.7648 11.1479 12.3523 11.7355C12.9399 12.323 13.7368 12.6531 14.5677 12.6531Z" stroke="black" stroke-width="1.5" stroke-linecap="round" stroke-linejoin="round"/>
</svg>
