<svg width="22" height="24" viewBox="0 0 22 24" fill="none" xmlns="http://www.w3.org/2000/svg">
<path d="M6.625 13.875H15.375M11 9.5V18.25M7.25 5.24153C8.40179 5.16812 9.67625 5.125 11 5.125C12.3237 5.125 13.5982 5.16812 14.75 5.24153M7.25 5.24153C7.25 5.24153 2.66667 5.61111 2.11111 6.09722C1.67933 6.47503 1.24755 8.61465 1.07658 11.375C1.02758 12.1663 1 13.0086 1 13.875C1 17.7639 1.55556 21.1667 2.11111 21.6528C2.66667 22.1389 6.55556 22.625 11 22.625C15.4444 22.625 19.3333 22.1389 19.8889 21.6528C20.4444 21.1667 21 17.7639 21 13.875C21 13.0086 20.9724 12.1663 20.9234 11.375C20.7525 8.61465 20.3207 6.47503 19.8889 6.09722C19.3333 5.61111 14.75 5.24153 14.75 5.24153M7.25 5.24153V3.875C7.25 1.6562 9.29663 1.375 11 1.375C12.7034 1.375 14.75 1.6562 14.75 3.875V5.24153" stroke="#828A97" stroke-width="2" stroke-linecap="round" stroke-linejoin="round"/>
</svg>
