<svg width="12" height="12" viewBox="0 0 12 12" fill="none" xmlns="http://www.w3.org/2000/svg">
<path d="M5.83333 9.0625C6.5625 9.0625 7.18239 8.78917 7.693 8.2425C8.20361 7.69583 8.45872 7.03167 8.45833 6.25C8.45833 5.46875 8.20322 4.80479 7.693 4.25812C7.18278 3.71146 6.56289 3.43792 5.83333 3.4375C5.10417 3.4375 4.48447 3.71104 3.97425 4.25812C3.46403 4.80521 3.20872 5.46917 3.20833 6.25C3.20833 7.03125 3.46364 7.69542 3.97425 8.2425C4.48486 8.78958 5.10456 9.06292 5.83333 9.0625ZM5.83333 7.8125C5.425 7.8125 5.07986 7.66146 4.79792 7.35938C4.51597 7.05729 4.375 6.6875 4.375 6.25C4.375 5.8125 4.51597 5.44271 4.79792 5.14062C5.07986 4.83854 5.425 4.6875 5.83333 4.6875C6.24167 4.6875 6.58681 4.83854 6.86875 5.14062C7.1507 5.44271 7.29167 5.8125 7.29167 6.25C7.29167 6.6875 7.1507 7.05729 6.86875 7.35938C6.58681 7.66146 6.24167 7.8125 5.83333 7.8125ZM1.16667 11.25C0.845833 11.25 0.571278 11.1277 0.343 10.8831C0.114722 10.6385 0.000388889 10.3442 0 10V2.5C0 2.15625 0.114333 1.86208 0.343 1.6175C0.571667 1.37292 0.846222 1.25042 1.16667 1.25H3.00417L4.08333 0H7.58333L8.6625 1.25H10.5C10.8208 1.25 11.0956 1.3725 11.3243 1.6175C11.5529 1.8625 11.6671 2.15667 11.6667 2.5V10C11.6667 10.3438 11.5525 10.6381 11.3243 10.8831C11.096 11.1281 10.8212 11.2504 10.5 11.25H1.16667ZM1.16667 10H10.5V2.5H8.1375L7.07292 1.25H4.59375L3.52917 2.5H1.16667V10Z" fill="white"/>
</svg>
