<svg width="24" height="25" viewBox="0 0 24 25" fill="none" xmlns="http://www.w3.org/2000/svg">
<path fill-rule="evenodd" clip-rule="evenodd" d="M23.6136 4.45535C23.7324 4.63555 23.7853 4.8512 23.7634 5.06589C23.7416 5.28057 23.6463 5.48113 23.4937 5.63371L12.0063 17.1199C11.8887 17.2373 11.7421 17.3214 11.5814 17.3635L6.79675 18.6131C6.63859 18.6544 6.47239 18.6535 6.31465 18.6107C6.15691 18.5679 6.01312 18.4845 5.89754 18.369C5.78197 18.2534 5.69863 18.1096 5.6558 17.9519C5.61296 17.7941 5.61213 17.6279 5.65338 17.4698L6.90297 12.6864C6.93944 12.5428 7.00826 12.4094 7.10415 12.2965L18.6341 0.774084C18.8098 0.598579 19.048 0.5 19.2963 0.5C19.5447 0.5 19.7829 0.598579 19.9586 0.774084L23.4937 4.3079C23.5385 4.3529 23.5787 4.4023 23.6136 4.45535ZM21.5056 4.97018L19.2963 2.76217L8.65238 13.4061L7.87139 16.3964L10.8616 15.6154L21.5056 4.97018Z" fill="black"/>
<path d="M21.3466 19.13C21.6881 16.211 21.7972 13.2693 21.6727 10.333C21.67 10.2638 21.6816 10.1948 21.7067 10.1303C21.7319 10.0658 21.7701 10.0072 21.8189 9.9581L23.0485 8.72851C23.0821 8.69472 23.1247 8.67135 23.1713 8.66122C23.2179 8.65108 23.2664 8.6546 23.311 8.67136C23.3556 8.68812 23.3944 8.71741 23.4228 8.7557C23.4511 8.79399 23.4678 8.83966 23.4709 8.88721C23.7023 12.3751 23.6145 15.8768 23.2084 19.3487C22.9135 21.8754 20.8842 23.856 18.3688 24.1371C14.0019 24.6207 9.59505 24.6207 5.22819 24.1371C2.71403 23.856 0.68346 21.8754 0.388558 19.3487C-0.129519 14.9195 -0.129519 10.4449 0.388558 6.01567C0.68346 3.48901 2.71278 1.50842 5.22819 1.22727C8.54255 0.859742 11.8819 0.770709 15.2111 0.961105C15.2588 0.964526 15.3044 0.98153 15.3427 1.0101C15.381 1.03868 15.4103 1.07762 15.4271 1.12233C15.4439 1.16703 15.4476 1.21562 15.4377 1.26235C15.4277 1.30907 15.4046 1.35197 15.3711 1.38596L14.1302 2.62555C14.0816 2.67397 14.0236 2.71192 13.9598 2.73707C13.896 2.76221 13.8277 2.77401 13.7591 2.77175C10.981 2.67731 8.19965 2.7838 5.43687 3.09039C4.62957 3.17975 3.87596 3.53865 3.29778 4.10912C2.7196 4.67959 2.35062 5.42831 2.25044 6.23435C1.74941 10.5183 1.74941 14.8461 2.25044 19.13C2.35062 19.9361 2.7196 20.6848 3.29778 21.2553C3.87596 21.8257 4.62957 22.1846 5.43687 22.274C9.62922 22.7426 13.9678 22.7426 18.1614 22.274C18.9687 22.1846 19.7223 21.8257 20.3005 21.2553C20.8786 20.6848 21.2464 19.9361 21.3466 19.13Z" fill="black"/>
</svg>
