<svg width="38" height="38" viewBox="0 0 38 38" fill="none" xmlns="http://www.w3.org/2000/svg">
<path d="M2.9 17.6992H0V35.0992C0 35.8683 0.305535 36.606 0.84939 37.1498C1.39325 37.6937 2.13087 37.9992 2.9 37.9992H20.3V35.0992H2.9V17.6992Z" fill="#232425"/>
<path d="M26.1 9.00098H8.70005C7.93092 9.00098 7.19329 9.30651 6.64944 9.85037C6.10558 10.3942 5.80005 11.1318 5.80005 11.901V29.301C5.80005 30.0701 6.10558 30.8077 6.64944 31.3516C7.19329 31.8954 7.93092 32.201 8.70005 32.201H26.1C26.8692 32.201 27.6068 31.8954 28.1507 31.3516C28.6945 30.8077 29 30.0701 29 29.301V11.901C29 11.1318 28.6945 10.3942 28.1507 9.85037C27.6068 9.30651 26.8692 9.00098 26.1 9.00098ZM13.05 26.401V14.801L23.2 20.601L13.05 26.401Z" fill="#232425"/>
<path d="M23.6726 4.88071C22.329 4.88149 21.0855 5.30956 20.1838 6.15348C19.2819 6.99686 18.7384 8.25145 18.7384 9.81557C18.7385 11.4565 19.8921 12.9821 21.4557 14.4803C23.0194 15.9784 25.0309 17.4566 26.8726 18.9909C26.9811 19.0778 27.1497 19.0773 27.2578 18.9907C29.0988 17.457 31.1055 15.9736 32.6742 14.4803C34.243 12.9871 35.4115 11.4741 35.4114 9.81607C35.4116 8.23481 34.849 6.99265 33.9464 6.15341C33.0443 5.31385 31.8187 4.88116 30.4767 4.88101C29.0961 4.88043 27.9297 5.75184 27.065 6.63499C26.2043 5.75731 25.0498 4.88039 23.6726 4.88071Z" fill="#FF5555"/>
</svg>
