<svg width="24" height="25" viewBox="0 0 24 25" fill="none" xmlns="http://www.w3.org/2000/svg">
<path d="M13.0751 26.4181L12.7337 22.3215H12.3923C9.16051 22.3215 6.41803 21.1949 4.16488 18.9417C1.91173 16.6886 0.785156 13.9461 0.785156 10.7143C0.785156 7.48253 1.91173 4.74005 4.16488 2.4869C6.41803 0.233753 9.16051 -0.892822 12.3923 -0.892822C14.0082 -0.892822 15.5162 -0.591492 16.9164 0.0111691C18.3165 0.61383 19.5455 1.44454 20.6033 2.50329C21.6612 3.56204 22.4914 4.79104 23.0941 6.19026C23.6967 7.58949 23.9985 9.09751 23.9994 10.7143C23.9994 12.4213 23.7209 14.0599 23.1637 15.6303C22.6066 17.2007 21.8437 18.6572 20.8751 20C19.9064 21.3428 18.7571 22.5604 17.4271 23.6529C16.097 24.7453 14.6464 25.667 13.0751 26.4181ZM15.8062 21.4339C17.4221 20.0683 18.7366 18.4697 19.7499 16.6381C20.7631 14.8064 21.2693 12.8318 21.2683 10.7143C21.2683 8.23358 20.409 6.13428 18.6902 4.41642C16.9714 2.69856 14.8721 1.83918 12.3923 1.83827C9.91247 1.83736 7.81317 2.69674 6.0944 4.41642C4.37563 6.1361 3.51625 8.2354 3.51625 10.7143C3.51625 13.1932 4.37563 15.293 6.0944 17.0136C7.81317 18.7342 9.91247 19.5931 12.3923 19.5904H15.8062V21.4339ZM12.3582 18.1907C12.7451 18.1907 13.0751 18.0541 13.3482 17.781C13.6213 17.5079 13.7578 17.1779 13.7578 16.791C13.7578 16.4041 13.6213 16.0741 13.3482 15.801C13.0751 15.5279 12.7451 15.3913 12.3582 15.3913C11.9713 15.3913 11.6412 15.5279 11.3681 15.801C11.095 16.0741 10.9585 16.4041 10.9585 16.791C10.9585 17.1779 11.095 17.5079 11.3681 17.781C11.6412 18.0541 11.9713 18.1907 12.3582 18.1907ZM11.3681 13.8551H13.4165C13.4165 13.1723 13.4847 12.6944 13.6213 12.4213C13.7578 12.1481 14.1903 11.6474 14.9186 10.9192C15.3282 10.5095 15.6696 10.0657 15.9427 9.58774C16.2158 9.1098 16.3524 8.59772 16.3524 8.0515C16.3524 6.89079 15.96 6.02048 15.1753 5.44058C14.3905 4.86068 13.4629 4.57027 12.3923 4.56936C11.3909 4.56936 10.5488 4.84839 9.86604 5.40644C9.18326 5.96449 8.70533 6.64135 8.43222 7.43701L10.344 8.18806C10.4578 7.80115 10.674 7.42017 10.9926 7.0451C11.3112 6.67003 11.7778 6.48204 12.3923 6.48113C13.0068 6.48022 13.4679 6.65091 13.7756 6.99321C14.0833 7.3355 14.2367 7.71103 14.2358 8.11978C14.2358 8.50669 14.122 8.85399 13.8944 9.16169C13.6668 9.4694 13.3937 9.78211 13.0751 10.0998C12.2785 10.7826 11.7951 11.3234 11.6249 11.7221C11.4546 12.1208 11.3691 12.8318 11.3681 13.8551Z" fill="black"/>
</svg>
