<svg width="24" height="25" viewBox="0 0 24 25" fill="none" xmlns="http://www.w3.org/2000/svg">
<path d="M8.959 13.6197C8.959 14.3835 8.65558 15.116 8.1155 15.6561C7.57541 16.1962 6.8429 16.4996 6.07911 16.4996C5.31531 16.4996 4.5828 16.1962 4.04272 15.6561C3.50264 15.116 3.19922 14.3835 3.19922 13.6197C3.19922 12.8559 3.50264 12.1234 4.04272 11.5833C4.5828 11.0433 5.31531 10.7398 6.07911 10.7398C6.8429 10.7398 7.57541 11.0433 8.1155 11.5833C8.65558 12.1234 8.959 12.8559 8.959 13.6197ZM7.35906 13.6197C7.35906 13.2803 7.22421 12.9547 6.98417 12.7147C6.74413 12.4746 6.41857 12.3398 6.07911 12.3398C5.73964 12.3398 5.41408 12.4746 5.17405 12.7147C4.93401 12.9547 4.79916 13.2803 4.79916 13.6197C4.79916 13.9592 4.93401 14.2848 5.17405 14.5248C5.41408 14.7648 5.73964 14.8997 6.07911 14.8997C6.41857 14.8997 6.74413 14.7648 6.98417 14.5248C7.22421 14.2848 7.35906 13.9592 7.35906 13.6197ZM3.19922 7.05998C3.19922 6.6184 3.5576 6.26001 3.99919 6.26001H17.1187C17.3308 6.26001 17.5343 6.34429 17.6843 6.49432C17.8344 6.64434 17.9187 6.84781 17.9187 7.05998C17.9187 7.27214 17.8344 7.47562 17.6843 7.62564C17.5343 7.77567 17.3308 7.85995 17.1187 7.85995H3.99919C3.5576 7.85995 3.19922 7.50156 3.19922 7.05998ZM11.0389 12.9798C10.8268 12.9798 10.6233 13.064 10.4733 13.2141C10.3232 13.3641 10.2389 13.5676 10.2389 13.7797C10.2389 13.9919 10.3232 14.1954 10.4733 14.3454C10.6233 14.4954 10.8268 14.5797 11.0389 14.5797H17.1187C17.3308 14.5797 17.5343 14.4954 17.6843 14.3454C17.8344 14.1954 17.9187 13.9919 17.9187 13.7797C17.9187 13.5676 17.8344 13.3641 17.6843 13.2141C17.5343 13.064 17.3308 12.9798 17.1187 12.9798H11.0389Z" fill="black"/>
<path d="M3.67986 0.500732C2.7039 0.500732 1.76791 0.888431 1.07781 1.57854C0.387698 2.26865 0 3.20463 0 4.18059V17.9401C0 18.916 0.387698 19.852 1.07781 20.5421C1.76791 21.2322 2.7039 21.6199 3.67986 21.6199H17.4393C18.4153 21.6199 19.3513 21.2322 20.0414 20.5421C20.7315 19.852 21.1192 18.916 21.1192 17.9401V4.18059C21.1192 3.20463 20.7315 2.26865 20.0414 1.57854C19.3513 0.888431 18.4153 0.500732 17.4393 0.500732H3.67986ZM1.59994 4.18059C1.59994 3.62896 1.81907 3.09993 2.20913 2.70987C2.59919 2.3198 3.12823 2.10067 3.67986 2.10067H17.4393C17.991 2.10067 18.52 2.3198 18.9101 2.70987C19.3001 3.09993 19.5192 3.62896 19.5192 4.18059V17.9401C19.5192 18.2319 19.4591 18.5096 19.3503 18.7624C19.1902 19.1364 18.9237 19.455 18.5839 19.6786C18.2441 19.9022 17.8461 20.0209 17.4393 20.02H3.67986C3.26951 20.021 2.8681 19.9002 2.52645 19.6729C2.18479 19.4456 1.91825 19.1221 1.76057 18.7432C1.65349 18.4891 1.59885 18.2159 1.59994 17.9401V4.18059Z" fill="black"/>
<path d="M6.5614 24.499C5.96278 24.4997 5.37307 24.354 4.84359 24.0747C4.31412 23.7954 3.86092 23.3909 3.52344 22.8965C3.57592 22.8982 3.62861 22.8991 3.68151 22.8991H17.441C18.7564 22.8991 20.018 22.3765 20.9481 21.4464C21.8782 20.5162 22.4008 19.2547 22.4008 17.9393V4.1798C22.4008 4.12732 22.3999 4.07463 22.3982 4.02173C22.8927 4.35921 23.2971 4.81241 23.5764 5.34188C23.8557 5.87136 24.0014 6.46107 24.0007 7.05969V17.9393C24.0007 21.5615 21.0632 24.499 17.441 24.499H6.5614Z" fill="black"/>
</svg>
