<svg width="24" height="24" viewBox="0 0 24 24" fill="none" xmlns="http://www.w3.org/2000/svg">
<path d="M12 3.25C12.1989 3.25 12.3897 3.32902 12.5303 3.46967C12.671 3.61032 12.75 3.80109 12.75 4C12.75 4.19891 12.671 4.38968 12.5303 4.53033C12.3897 4.67098 12.1989 4.75 12 4.75C10.0772 4.75 8.23311 5.51384 6.87348 6.87348C5.51384 8.23311 4.75 10.0772 4.75 12C4.75 13.9228 5.51384 15.7669 6.87348 17.1265C8.23311 18.4862 10.0772 19.25 12 19.25C12.1989 19.25 12.3897 19.329 12.5303 19.4697C12.671 19.6103 12.75 19.8011 12.75 20C12.75 20.1989 12.671 20.3897 12.5303 20.5303C12.3897 20.671 12.1989 20.75 12 20.75C9.67936 20.75 7.45376 19.8281 5.81282 18.1872C4.17187 16.5462 3.25 14.3206 3.25 12C3.25 9.67936 4.17187 7.45376 5.81282 5.81282C7.45376 4.17187 9.67936 3.25 12 3.25Z" fill="#D20707"/>
<path d="M16.47 9.53009C16.3375 9.38792 16.2654 9.19987 16.2688 9.00557C16.2723 8.81127 16.351 8.62588 16.4884 8.48847C16.6258 8.35106 16.8112 8.27234 17.0055 8.26892C17.1998 8.26549 17.3878 8.33761 17.53 8.47009L20.53 11.4701C20.6705 11.6107 20.7493 11.8013 20.7493 12.0001C20.7493 12.1988 20.6705 12.3895 20.53 12.5301L17.53 15.5301C17.4613 15.6038 17.3785 15.6629 17.2865 15.7039C17.1945 15.7449 17.0952 15.7669 16.9945 15.7687C16.8938 15.7705 16.7938 15.7519 16.7004 15.7142C16.607 15.6765 16.5222 15.6203 16.451 15.5491C16.3797 15.4779 16.3236 15.3931 16.2859 15.2997C16.2482 15.2063 16.2296 15.1063 16.2314 15.0056C16.2332 14.9049 16.2552 14.8056 16.2962 14.7136C16.3372 14.6216 16.3963 14.5388 16.47 14.4701L18.19 12.7501H10C9.80109 12.7501 9.61032 12.6711 9.46967 12.5304C9.32902 12.3898 9.25 12.199 9.25 12.0001C9.25 11.8012 9.32902 11.6104 9.46967 11.4698C9.61032 11.3291 9.80109 11.2501 10 11.2501H18.19L16.47 9.53009Z" fill="#D20707"/>
</svg>
