<svg width="24" height="24" viewBox="0 0 24 24" fill="none" xmlns="http://www.w3.org/2000/svg">
<path d="M18.3001 1.5V9.89977M22.5 5.69989H14.1002M2.02556 5.69989C2.02556 4.08293 2.02556 3.27445 2.3899 2.68017C2.59359 2.34733 2.87288 2.06803 3.20572 1.86434C3.79896 1.5 4.60849 1.5 6.22544 1.5C7.8424 1.5 8.65088 1.5 9.24516 1.86434C9.578 2.06803 9.85729 2.34733 10.061 2.68017C10.4253 3.2734 10.4253 4.08293 10.4253 5.69989C10.4253 7.31684 10.4253 8.12532 10.061 8.7196C9.85729 9.05245 9.578 9.33174 9.24516 9.53543C8.65193 9.89977 7.8424 9.89977 6.22544 9.89977C4.60849 9.89977 3.80001 9.89977 3.20572 9.53543C2.87313 9.33178 2.59354 9.0522 2.3899 8.7196C2.02556 8.12637 2.02556 7.31684 2.02556 5.69989ZM3.37162 14.9207C4.47094 13.8214 5.02007 13.2723 5.67106 13.1148C6.03546 13.0272 6.41542 13.0272 6.77983 13.1148C7.43081 13.2723 7.97994 13.8214 9.07926 14.9207C10.1786 16.0201 10.7277 16.5692 10.8852 17.2202C10.9712 17.5848 10.9712 17.9644 10.8852 18.3289C10.7277 18.9799 10.1786 19.5301 9.07926 20.6284C7.97994 21.7267 7.43081 22.2768 6.77983 22.4343C6.41542 22.5219 6.03546 22.5219 5.67106 22.4343C5.02007 22.2768 4.47094 21.7277 3.37162 20.6284C2.2723 19.5291 1.72316 18.9799 1.56567 18.3289C1.47811 17.9645 1.47811 17.5846 1.56567 17.2202C1.72316 16.5692 2.2723 16.019 3.37162 14.9207ZM14.1002 18.2995C14.1002 16.6826 14.1002 15.8741 14.4646 15.2798C14.6683 14.947 14.9476 14.6677 15.2804 14.464C15.8736 14.0997 16.6832 14.0997 18.3001 14.0997C19.9171 14.0997 20.7255 14.0997 21.3209 14.464C21.6527 14.6677 21.932 14.947 22.1357 15.2798C22.5 15.8731 22.5 16.6826 22.5 18.2995C22.5 19.9165 22.5 20.725 22.1357 21.3203C21.9319 21.6522 21.6527 21.9313 21.3209 22.1351C20.7255 22.4994 19.9171 22.4994 18.3001 22.4994C16.6832 22.4994 15.8747 22.4994 15.2804 22.1351C14.9479 21.9317 14.6683 21.6525 14.4646 21.3203C14.1002 20.725 14.1002 19.9165 14.1002 18.2995Z" stroke="#828A97" stroke-width="1.5" stroke-linecap="round" stroke-linejoin="round"/>
</svg>
