<svg width="24" height="25" viewBox="0 0 24 25" fill="none" xmlns="http://www.w3.org/2000/svg">
<path d="M14.438 0.186768C14.6242 0.186773 14.8056 0.245878 14.9561 0.35557C15.1066 0.465262 15.2184 0.61988 15.2753 0.797156L16.2428 3.80336C16.6492 4.00214 17.0379 4.22553 17.4091 4.47708L20.4979 3.81216C20.6801 3.77327 20.8698 3.7932 21.0399 3.86907C21.21 3.94494 21.3516 4.07283 21.4443 4.23433L23.8823 8.45428C23.9754 8.61568 24.0149 8.80248 23.995 8.98774C23.975 9.173 23.8968 9.34715 23.7715 9.48508L21.6519 11.8246C21.6828 12.2732 21.6828 12.7234 21.6519 13.172L23.7715 15.5151C23.8968 15.653 23.975 15.8272 23.995 16.0124C24.0149 16.1977 23.9754 16.3845 23.8823 16.5459L21.4443 20.7676C21.3513 20.9288 21.2096 21.0563 21.0396 21.1318C20.8695 21.2074 20.6799 21.227 20.4979 21.188L17.4091 20.5231C17.0397 20.7729 16.6492 20.998 16.2446 21.1968L15.2753 24.203C15.2184 24.3803 15.1066 24.5349 14.9561 24.6446C14.8056 24.7543 14.6242 24.8134 14.438 24.8134H9.56196C9.37576 24.8134 9.19435 24.7543 9.04388 24.6446C8.89341 24.5349 8.78164 24.3803 8.72466 24.203L7.75894 21.1986C7.35371 21.0004 6.96283 20.7741 6.58918 20.5213L3.50206 21.188C3.31993 21.2269 3.13017 21.207 2.9601 21.1311C2.79002 21.0552 2.64842 20.9273 2.55569 20.7658L0.117655 16.5459C0.0245565 16.3845 -0.014877 16.1977 0.00504009 16.0124C0.0249572 15.8272 0.103196 15.653 0.228475 15.5151L2.34812 13.172C2.31741 12.7246 2.31741 12.2756 2.34812 11.8281L0.228475 9.48508C0.103196 9.34715 0.0249572 9.173 0.00504009 8.98774C-0.014877 8.80248 0.0245565 8.61568 0.117655 8.45428L2.55569 4.23257C2.64868 4.0714 2.79039 3.94387 2.96044 3.86832C3.13049 3.79278 3.32012 3.77312 3.50206 3.81216L6.58918 4.47884C6.9621 4.22729 7.3526 4.00038 7.75894 3.8016L8.72642 0.797156C8.78321 0.620451 8.89445 0.466242 9.04422 0.356603C9.19399 0.246965 9.3746 0.187516 9.5602 0.186768H14.4363H14.438ZM13.7942 1.94581H10.2058L9.20664 5.05404L8.53292 5.38299C8.20172 5.54505 7.882 5.7296 7.576 5.93533L6.9533 6.3575L3.75888 5.66795L1.96465 8.77794L4.15466 11.2019L4.10189 11.9477C4.0766 12.3155 4.0766 12.6846 4.10189 13.0524L4.15466 13.7983L1.96113 16.2222L3.75712 19.3322L6.95154 18.6444L7.57424 19.0648C7.88024 19.2706 8.19996 19.4551 8.53116 19.6172L9.20488 19.9461L10.2058 23.0543H13.7977L14.8004 19.9444L15.4724 19.6172C15.8032 19.4555 16.1224 19.2709 16.4275 19.0648L17.0485 18.6444L20.2446 19.3322L22.0389 16.2222L19.8471 13.7983L19.8999 13.0524C19.9252 12.684 19.9252 12.3144 19.8999 11.946L19.8471 11.2001L22.0406 8.77794L20.2446 5.66795L17.0485 6.35398L16.4275 5.93533C16.1224 5.72922 15.8032 5.54466 15.4724 5.38299L14.8004 5.0558L13.796 1.94581H13.7942ZM12 7.22295C13.3996 7.22295 14.7418 7.77893 15.7315 8.76858C16.7212 9.75824 17.2771 11.1005 17.2771 12.5001C17.2771 13.8997 16.7212 15.2419 15.7315 16.2316C14.7418 17.2212 13.3996 17.7772 12 17.7772C10.6004 17.7772 9.25816 17.2212 8.2685 16.2316C7.27885 15.2419 6.72287 13.8997 6.72287 12.5001C6.72287 11.1005 7.27885 9.75824 8.2685 8.76858C9.25816 7.77893 10.6004 7.22295 12 7.22295ZM12 8.98199C11.0669 8.98199 10.1721 9.35265 9.51233 10.0124C8.85257 10.6722 8.48191 11.567 8.48191 12.5001C8.48191 13.4331 8.85257 14.328 9.51233 14.9877C10.1721 15.6475 11.0669 16.0182 12 16.0182C12.9331 16.0182 13.8279 15.6475 14.4877 14.9877C15.1474 14.328 15.5181 13.4331 15.5181 12.5001C15.5181 11.567 15.1474 10.6722 14.4877 10.0124C13.8279 9.35265 12.9331 8.98199 12 8.98199Z" fill="black"/>
</svg>
