<svg width="26" height="25" viewBox="0 0 26 25" fill="none" xmlns="http://www.w3.org/2000/svg">
<path d="M23.0458 5.93637C24.7497 8.54425 25.3727 11.7125 24.783 14.7714C24.1934 17.8302 22.4373 20.5399 19.8861 22.3275C17.3349 24.1152 14.1885 24.8406 11.1121 24.3505C8.03575 23.8604 5.27052 22.1932 3.40107 19.7013C1.53161 17.2095 0.704445 14.0883 1.09446 10.9976C1.48447 7.90696 3.06109 5.08909 5.49099 3.13977C7.92089 1.19044 11.0136 0.262444 14.1153 0.551972C17.217 0.841501 20.0845 2.32586 22.1117 4.69123" stroke="black" stroke-linecap="round" stroke-linejoin="round"/>
<path d="M18.9729 10.1261C19.5725 11.6404 19.5739 13.3261 18.9767 14.8415C18.3795 16.3568 17.2285 17.5883 15.7569 18.2864C14.2853 18.9844 12.6033 19.0967 11.0519 18.6006C9.50058 18.1044 8.19596 17.0368 7.40259 15.6144C6.60921 14.1919 6.38645 12.5209 6.77947 10.9403C7.17248 9.35967 8.15186 7.98764 9.51904 7.10237C10.8862 6.21711 12.5389 5.88487 14.142 6.17301C15.745 6.46116 17.1785 7.34812 18.1519 8.65408" stroke="black" stroke-linecap="round" stroke-linejoin="round"/>
<path d="M22.1108 4.69019L13.0057 13.7952L10.375 11.1645" stroke="black" stroke-linecap="round" stroke-linejoin="round"/>
</svg>
